<?xml version="1.0" standalone="no"?>
<!DOCTYPE svg PUBLIC "-//W3C//DTD SVG 20010904//EN"
 "http://www.w3.org/TR/2001/REC-SVG-20010904/DTD/svg10.dtd">
<svg version="1.0" xmlns="http://www.w3.org/2000/svg"
 width="165.000000pt" height="165.000000pt" viewBox="0 0 165.000000 165.000000"
 preserveAspectRatio="xMidYMid meet">

<g transform="translate(0.000000,165.000000) scale(0.100000,-0.100000)"
fill="#000000" stroke="none">
<path d="M103 1210 c-6 -14 -10 -70 -9 -125 1 -92 4 -106 35 -170 25 -53 55
-90 118 -152 47 -46 83 -83 80 -83 -4 0 -27 14 -52 31 -80 54 -164 139 -199
201 -32 57 -56 66 -40 15 4 -12 8 -41 10 -64 3 -52 36 -128 66 -154 13 -10 59
-30 103 -44 44 -14 97 -37 117 -50 24 -16 53 -25 80 -26 36 0 39 -2 18 -8
-179 -57 -203 -63 -253 -58 -28 2 -63 8 -77 12 -22 7 -21 3 14 -34 53 -55 87
-60 199 -31 85 22 129 22 71 0 -27 -11 -27 -12 -10 -22 24 -13 90 -4 146 20
l45 20 -45 21 c-44 20 -44 21 -14 21 16 0 68 -18 115 -41 100 -49 188 -73 232
-64 38 7 193 72 222 91 11 8 31 14 45 14 25 0 158 -40 218 -66 18 -8 51 -14
74 -14 45 0 108 19 108 32 0 5 11 18 25 30 34 29 32 42 -5 23 -42 -22 -102
-19 -210 11 -116 32 -139 43 -87 44 22 0 53 10 75 24 20 13 48 27 62 31 19 6
14 0 -17 -24 -24 -17 -43 -35 -43 -40 0 -5 20 -14 45 -21 56 -16 116 -1 140
33 23 32 18 39 -15 22 -41 -21 -59 -19 -70 11 -6 14 -10 27 -10 29 0 1 15 6
33 9 49 9 113 63 137 114 20 41 40 202 26 202 -3 0 -18 -26 -32 -57 -31 -66
-136 -174 -205 -212 -41 -22 -38 -18 37 55 86 84 112 123 139 219 14 46 16 77
11 144 -4 47 -12 90 -17 95 -5 6 -9 2 -9 -10 0 -43 -42 -181 -75 -249 -39 -80
-104 -166 -122 -160 -6 2 -19 -8 -28 -22 -13 -19 -108 -73 -129 -73 -2 0 1 11
7 24 7 15 14 20 19 13 10 -17 56 8 70 38 14 31 3 45 -16 19 -11 -14 -18 -16
-26 -8 -9 9 -8 18 5 38 22 34 16 102 -14 148 l-21 33 0 -75 c0 -41 -5 -82 -10
-90 -7 -11 -10 3 -10 45 0 70 -44 176 -80 195 -12 7 -20 8 -18 3 44 -89 64
-181 53 -241 l-7 -37 -19 49 c-55 137 -159 210 -295 208 -117 -1 -209 -64
-273 -187 l-32 -60 5 78 c4 49 15 101 30 138 25 63 22 73 -12 37 -40 -44 -62
-108 -62 -187 0 -101 -12 -82 -19 31 l-6 93 -24 -40 c-33 -56 -31 -100 7 -161
18 -28 32 -57 32 -64 0 -8 8 -22 17 -33 15 -16 9 -15 -42 7 -33 15 -72 40 -87
56 -16 17 -28 25 -28 18 -1 -17 -52 42 -94 107 -53 82 -74 135 -94 235 -17 83
-21 92 -29 70z m858 -202 c98 -58 143 -139 143 -258 0 -99 -34 -174 -105 -230
-122 -96 -270 -89 -379 20 -60 60 -84 119 -83 205 1 129 74 238 190 281 61 23
180 13 234 -18z m-481 -344 l25 -15 -30 6 c-16 4 -34 11 -39 16 -16 15 16 10
44 -7z m670 -18 c0 -2 -7 -7 -16 -10 -8 -3 -12 -2 -9 4 6 10 25 14 25 6z
m-590 -67 c0 -30 -43 11 -45 44 -2 19 0 18 22 -7 12 -15 23 -31 23 -37z m558
9 c-24 -24 -34 -18 -17 10 7 11 18 18 25 15 9 -3 7 -10 -8 -25z m-528 -63 c0
-3 -18 4 -40 15 -22 11 -40 23 -40 25 0 3 18 -4 40 -15 22 -11 40 -23 40 -25z
m-140 -25 c-8 -5 -19 -10 -25 -10 -5 0 -3 5 5 10 8 5 20 10 25 10 6 0 3 -5 -5
-10z"/>
<path d="M628 933 c-15 -18 -46 -73 -35 -63 9 8 57 80 53 80 -1 0 -10 -8 -18
-17z"/>
<path d="M1056 855 c16 -46 16 -155 1 -200 -19 -53 -12 -60 9 -10 20 48 20
152 0 195 -9 19 -13 26 -10 15z"/>
<path d="M750 819 c0 -9 7 -22 15 -29 19 -16 19 0 0 26 -12 16 -14 16 -15 3z"/>
<path d="M852 809 c-7 -12 -11 -24 -7 -27 7 -8 25 17 25 36 0 17 -3 15 -18 -9z"/>
<path d="M630 805 c-10 -12 -6 -13 24 -8 26 4 44 0 70 -17 29 -17 35 -18 30
-5 -15 37 -100 59 -124 30z"/>
<path d="M806 811 c-4 -7 -5 -15 -2 -18 9 -9 19 4 14 18 -4 11 -6 11 -12 0z"/>
<path d="M934 796 c-3 -9 -14 -16 -24 -16 -31 0 -41 -80 -14 -118 18 -27 55
-29 77 -4 24 26 21 33 -8 22 -16 -6 -25 -6 -25 0 0 6 -7 10 -15 10 -10 0 -15
10 -15 29 0 35 12 44 51 43 22 0 29 4 29 19 0 10 -4 19 -9 19 -5 0 -16 3 -25
6 -10 4 -18 0 -22 -10z"/>
<path d="M791 722 c1 -32 4 -68 8 -82 6 -22 8 -20 15 20 18 98 18 107 -4 113
-18 5 -20 1 -19 -51z"/>
<path d="M684 714 c9 -50 8 -58 -9 -70 -14 -11 -22 -11 -34 -2 -12 9 -12 8 1
-7 16 -17 19 -17 41 -2 39 25 45 137 8 137 -16 0 -17 -6 -7 -56z"/>
<path d="M697 509 c7 -7 15 -10 18 -7 3 3 -2 9 -12 12 -14 6 -15 5 -6 -5z"/>
<path d="M778 483 c7 -3 16 -2 19 1 4 3 -2 6 -13 5 -11 0 -14 -3 -6 -6z"/>
<path d="M371 812 c-1 -26 40 -72 64 -72 18 0 18 2 4 33 -8 17 -17 23 -30 20
-13 -4 -22 2 -28 18 l-10 24 0 -23z"/>
<path d="M230 626 c0 -20 -24 -26 -61 -16 -18 5 -35 8 -37 5 -10 -10 48 -53
81 -59 39 -7 117 9 117 24 0 12 -70 60 -87 60 -7 0 -13 -6 -13 -14z"/>
<path d="M1093 503 c-26 -10 -11 -20 61 -43 69 -21 126 -22 126 -2 0 5 -28 18
-62 30 -61 21 -99 26 -125 15z"/>
<path d="M574 463 c-11 -12 -13 -18 -5 -21 13 -4 41 16 41 29 0 14 -17 10 -36
-8z"/>
<path d="M1040 472 c0 -13 23 -32 39 -32 11 0 10 4 -4 20 -19 21 -35 26 -35
12z"/>
</g>
</svg>
